<?xml version="1.0" standalone="no"?>
<!DOCTYPE svg PUBLIC "-//W3C//DTD SVG 20010904//EN"
 "http://www.w3.org/TR/2001/REC-SVG-20010904/DTD/svg10.dtd">
<svg version="1.0" xmlns="http://www.w3.org/2000/svg"
 width="454.000000pt" height="550.000000pt" viewBox="0 0 454.000000 550.000000"
 preserveAspectRatio="xMidYMid meet">

<g transform="translate(0.000000,550.000000) scale(0.100000,-0.100000)"
fill="#000000" stroke="none">
<path d="M2469 5259 c-13 -12 -23 -25 -21 -30 1 -5 -3 -9 -9 -9 -7 0 -53 -43
-103 -95 -51 -52 -90 -95 -89 -95 2 0 -13 -15 -34 -32 -86 -75 -125 -121 -111
-130 9 -6 8 -8 -6 -6 -13 2 -24 -6 -32 -20 -6 -13 -15 -22 -19 -22 -4 1 -101
-91 -217 -206 -137 -136 -207 -212 -203 -222 4 -10 0 -13 -14 -9 -12 3 -23 -3
-31 -17 -7 -11 -43 -49 -80 -83 -37 -34 -66 -63 -64 -65 2 -2 -15 -20 -38 -39
-52 -43 -168 -159 -159 -159 3 0 0 -4 -7 -8 -13 -9 -200 -193 -260 -256 -17
-19 -35 -36 -40 -38 -4 -2 -30 -28 -59 -59 -29 -31 -54 -54 -57 -51 -4 3 -6 0
-6 -7 0 -7 -14 -24 -30 -38 -17 -13 -28 -29 -24 -34 3 -5 -1 -9 -8 -9 -14 -1
-58 -34 -58 -45 0 -4 7 -4 16 -1 9 3 12 2 9 -5 -4 -6 -13 -8 -20 -5 -20 7
-179 -161 -259 -274 -41 -58 -117 -199 -121 -225 -1 -12 -11 -35 -35 -90 -55
-124 -70 -404 -32 -622 8 -51 19 -90 23 -87 4 2 6 -4 4 -16 -2 -11 0 -22 6
-25 5 -4 9 -14 9 -23 0 -10 9 -35 20 -57 11 -22 20 -44 20 -51 0 -17 81 -174
90 -174 4 0 11 -8 14 -17 15 -42 104 -155 161 -205 67 -59 94 -79 125 -95 19
-10 41 -24 48 -31 11 -10 33 -15 58 -11 4 0 10 -4 13 -9 3 -5 35 -16 71 -25
73 -18 196 -17 275 2 57 14 135 56 135 74 0 9 3 8 9 -1 6 -10 10 -10 20 2 7 8
10 20 6 26 -3 5 -1 10 4 10 6 0 11 -5 11 -10 0 -6 11 -3 24 6 14 8 23 21 20
29 -3 7 1 12 9 12 18 -2 177 142 177 160 0 7 4 13 9 13 13 0 331 316 331 329
0 6 3 10 8 9 10 -4 27 11 133 115 49 49 87 93 84 98 -4 5 1 6 9 3 19 -7 22 21
4 30 -7 3 -4 4 8 1 25 -6 39 8 52 55 6 19 11 29 11 23 1 -7 5 -13 10 -13 16 0
6 28 -19 55 -18 19 -26 22 -32 13 -6 -10 -8 -9 -8 4 0 17 -94 81 -104 71 -3
-3 -12 2 -21 11 -9 9 -24 16 -34 16 -9 0 -22 5 -28 11 -6 6 -29 10 -51 7 -22
-2 -38 1 -35 6 5 8 -141 3 -197 -8 -14 -2 -40 -7 -59 -11 -19 -3 -39 -9 -45
-13 -19 -12 -80 -32 -98 -32 -19 0 -25 25 -8 35 6 4 8 11 5 16 -4 5 -1 9 5 9
6 0 8 5 5 10 -3 5 0 10 8 10 8 0 20 7 28 16 10 13 10 17 -2 25 -10 8 -8 9 9 4
17 -5 24 -1 31 17 6 13 10 19 10 15 1 -5 37 27 80 70 52 51 75 80 68 85 -8 5
-7 8 5 8 14 0 248 220 248 234 0 3 17 22 38 42 20 20 36 40 34 45 -1 5 4 8 10
7 7 -2 14 7 16 20 2 12 10 22 18 22 18 0 160 139 156 152 -1 5 1 7 6 4 12 -7
62 50 62 71 0 13 3 15 8 5 6 -9 30 11 83 69 41 45 73 86 71 91 -1 5 2 7 7 4 9
-6 71 76 71 92 0 4 9 13 20 20 11 7 20 16 20 22 0 5 11 21 25 36 14 15 25 32
25 39 0 7 8 23 19 36 10 13 24 41 32 62 7 20 16 37 19 37 4 0 7 6 8 13 0 6 14
53 30 102 45 137 51 184 48 385 -3 168 -14 250 -36 270 -3 3 -5 16 -6 30 0 14
-7 41 -14 59 -12 31 -14 33 -22 15 -6 -13 -7 -7 -3 17 4 25 1 40 -10 49 -8 7
-15 24 -15 39 0 20 -2 23 -10 11 -7 -11 -10 -7 -10 18 0 20 -6 35 -15 38 -8 4
-12 10 -10 15 8 13 -43 89 -60 89 -9 0 -15 10 -15 26 0 14 -4 23 -10 19 -5 -3
-10 2 -10 12 0 10 -5 25 -10 33 -9 13 -11 13 -21 0 -9 -12 -10 -12 -5 4 7 21
-30 70 -45 60 -5 -3 -9 0 -9 5 0 17 -15 13 -41 -10z m348 -1071 c-3 -8 -6 -5
-6 6 -1 11 2 17 5 13 3 -3 4 -12 1 -19z m-1876 -507 c-12 -12 -21 -18 -21 -14
0 10 33 44 37 39 3 -2 -5 -14 -16 -25z m-581 -1697 c0 -8 -4 -12 -10 -9 -5 3
-10 10 -10 16 0 5 5 9 10 9 6 0 10 -7 10 -16z"/>
<path d="M3424 4005 c-73 -16 -171 -62 -234 -111 -99 -77 -900 -888 -900 -912
0 -19 53 -74 107 -111 76 -52 274 -98 366 -86 68 10 170 41 231 71 48 24 76
26 76 4 0 -5 -211 -220 -468 -477 -482 -482 -605 -615 -687 -741 -145 -225
-214 -511 -186 -767 25 -234 88 -408 212 -590 76 -111 121 -159 145 -151 27 8
1915 1902 1986 1992 149 188 234 367 273 579 25 129 16 360 -18 506 -97 409
-391 740 -711 798 -75 14 -115 13 -192 -4z"/>
</g>
</svg>
